<svg id="Layer_2" data-name="Layer 2" xmlns="http://www.w3.org/2000/svg" viewBox="0 0 883.83 558.7"><defs><style>.cls-1{fill:#fe8f01;transform:translate(-100px, -270px);}.cls-2{fill:#fe9005;transform:translate(-100px, -270px);}</style></defs><path class="cls-1" d="M665.5,668.29c-2.54,3.9-4.57,7.85-7.36,11.16-8.21,9.74-19,14.55-31.62,15.2-.85.05-1.71.05-2.56.05q-99.62,0-199.24,0a44.83,44.83,0,0,1-27.94-9.08c-1.93-1.46-3.67-3.18-5.65-4.91-38.38,16.54-77.65,18.79-117.45,5.58-31.53-10.46-57.2-29.44-77.13-56-39.81-53-42.73-125.7-7.17-181.55,20.27-31.81,48.28-54.2,84.09-66.34S345,371.19,381,383.75c.09-1.72.22-3.1.22-4.48,0-18.52.26-37-.05-55.56-.39-23.3,18.24-38.76,37.17-40.75a99.28,99.28,0,0,1,10.21-.49q96.33,0,192.66,0c7.75,0,15.33.87,22.39,4.29,12,5.8,20,14.91,22.81,28.14a50.87,50.87,0,0,1,.8,10.18c.07,18.15.11,36.31,0,54.47,0,2.93.92,4.17,3.6,5.3,16.09,6.79,30.27,16.59,43.22,28.24l4,3.62c.94-1.18,1.77-2.17,2.55-3.2C734.54,395.12,751.74,381,773.55,373c53.72-19.69,112.6,6.83,133.79,60.17,6.81,17.13,9.3,34.94,8.43,53.33-1.14,24.08-9.38,45.87-21.12,66.54s-26.47,39.12-43,56.13c-33.59,34.57-72.33,62.14-114.92,84.47a22.63,22.63,0,0,1-20.38.73,376.27,376.27,0,0,1-46.16-23.49c-1.36-.81-2.71-1.64-4.08-2.43A1.63,1.63,0,0,0,665.5,668.29ZM872.39,479.74c0-14.23-2.54-25.47-8.13-36.31a61,61,0,0,0-67.83-31.89c-14.85,3.27-26.71,11.42-36.63,22.65-7.4,8.39-12.81,18-17.47,28.13-7.06,15.34-26.05,17.81-37,4.95-2-2.32-3.86-4.71-5.88-7-11.53-13.06-24.29-24.62-39.89-32.7-16.07-8.31-32.95-11.87-50.86-7.84s-32.28,13.8-42.25,29.51a37.77,37.77,0,0,0-5.86,22.95,89.46,89.46,0,0,0,5.65,25.93c6.09,16.6,15.07,31.62,25.55,45.76,20.49,27.64,45.24,51,72.93,71.22a354.88,354.88,0,0,0,57,34c2.31,1.11,4.16,1.19,6.39-.25,3.78-2.43,7.8-4.49,11.66-6.81,33.38-20.1,63.81-43.84,89.74-73.08,12.65-14.27,23.84-29.59,32.22-46.8C868.29,508.68,872.74,494.62,872.39,479.74ZM425.08,326.26V651.11H623.72c0-3.32-.12-6.46,0-9.58a5.36,5.36,0,0,0-2.3-4.93,379.15,379.15,0,0,1-34.83-31.74c-16.59-17.12-31.57-35.5-43.92-55.94-12.07-20-21.32-41-24.65-64.35-1.71-12-1.71-24,1.58-35.88,4.73-17,14-31.26,26.77-43.26,19.4-18.27,42.42-28.54,69.07-30.46l8.06-.61v-48.1Zm-43.81,208q0-49.35.06-98.7c0-2.64-.68-4.16-3.12-5.37-24.65-12.28-50.51-15.93-77.4-10.16a116.9,116.9,0,0,0,24.47,231.25,114.84,114.84,0,0,0,52.42-12.53c2.63-1.32,3.66-2.76,3.65-5.79C381.23,600,381.27,567.13,381.27,534.23Z"/><path class="cls-2" d="M250,796V739.66c1.76-.26,3.4-.62,5.06-.75,7.77-.61,15.55-1,23.3.32,13.91,2.39,22.16,12,22.18,26a42.94,42.94,0,0,1-1,10.12c-2.46,10.08-8.9,16.53-18.89,19.33a65.69,65.69,0,0,1-22.08,1.87C255.72,796.42,253,796.18,250,796Zm13.16-47v36.84a18.42,18.42,0,0,0,10.82,0c6.32-1.68,10.49-5.69,11.88-12a35.72,35.72,0,0,0,.65-10.82c-.59-6.08-3.72-10.76-9.63-13C272.42,748.1,267.85,748.17,263.11,748.92Z"/><path class="cls-2" d="M381.84,796.09H366.67c-4.55-8-9.14-16-13.88-24.21-2.85,2.62-5.23,5-4.92,9.24.35,4.82.08,9.7.08,14.8h-12.5c-.69-2.5-.93-51.65-.24-57h12.67v23.42l.7.18c.54-.73,1.1-1.45,1.61-2.2,4.38-6.44,8.82-12.85,13.07-19.38a4.55,4.55,0,0,1,4.49-2.31c4.09.14,8.19,0,13.24,0-6.61,8.54-12.68,16.36-19,24.49q4.83,8,9.72,16.14C375,784.74,378.24,790.14,381.84,796.09Z"/><path class="cls-2" d="M408.15,738.86h14.43c4,14.4,8.06,28.76,12,42.93Q440.73,760.64,447,739h14c-6.49,19.26-12.87,38.21-19.24,57.13H426.5Z"/><path class="cls-2" d="M840.93,741.16c-.89,3.21-1.79,6.44-2.61,9.41-4.21-.67-8.11-1.45-12-1.84a10.61,10.61,0,0,0-5,.85c-4.11,1.73-4.59,6.1-.92,8.61a41.9,41.9,0,0,0,6.19,3.06c2.75,1.28,5.64,2.3,8.27,3.79,6.08,3.45,9,8.71,8.33,15.78-.59,6.61-4.21,11-10,13.73-7.94,3.75-21.3,3.09-29.11-1.3.8-3.31,1.64-6.76,2.47-10.2a94.31,94.31,0,0,0,9.16,2.59,39.46,39.46,0,0,0,8,.33,7.84,7.84,0,0,0,3.43-1.11c3.5-2,4-6.34.91-8.84-1.86-1.47-4.22-2.34-6.4-3.39-3-1.42-6.08-2.52-8.89-4.19-5.28-3.13-8.46-7.75-8.09-14.11.4-6.87,4.13-11.65,10.37-14.23,8.29-3.43,16.65-2.81,24.92.26A4.72,4.72,0,0,1,840.93,741.16Z"/><path class="cls-2" d="M623.13,740.83c-1,3.61-2,6.84-3,10.36-4.27-1.73-8.36-2.85-12.66-2.49a12.81,12.81,0,0,0-4.55,1.09c-3.59,1.77-4,6-.71,8.28a39.06,39.06,0,0,0,6.16,3.11c2.76,1.27,5.67,2.26,8.31,3.73,6.07,3.38,9.14,8.55,8.58,15.65a15.59,15.59,0,0,1-10.17,14c-9.62,4-19.21,3-29.09-1,.87-3.57,1.68-6.94,2.57-10.6,1.29.43,2.3.72,3.28,1.1a29.45,29.45,0,0,0,11.77,2.12,19.78,19.78,0,0,0,2.18-.14c3.38-.49,5.67-2.33,6.14-4.89s-.77-4.93-4.05-6.64a59.69,59.69,0,0,0-5.71-2.38c-3.74-1.5-7.42-3.11-10.43-5.88a15.2,15.2,0,0,1,.72-23.38,22.69,22.69,0,0,1,12.42-4.78A35.15,35.15,0,0,1,623.13,740.83Z"/><path class="cls-2" d="M745.52,796.17V749.83H730.24V739.3c2.67-.73,39.31-.89,43.84-.19v10.68H758.61c-.11,8,0,15.58-.05,23.19s0,15.07,0,23C754.28,796.35,750.22,796.12,745.52,796.17Z"/><path class="cls-2" d="M684.37,749.64v46.42c-4.38.21-8.55.18-13.11,0V750c-5.27-.5-10.23,0-15.27-.33V738.93h43.68v10.71Z"/><path class="cls-1" d="M553.33,796.87H542.26c-.77-2.59-1-40-.32-45.64h11.13C553.78,753.72,554,790.91,553.33,796.87Z"/><path class="cls-2" d="M553.54,733.6v11.21H541.72v-11C545.58,733.4,549.41,733.68,553.54,733.6Z"/></svg>